<svg width="515" height="515" viewBox="0 0 515 515" fill="none" xmlns="http://www.w3.org/2000/svg">
<g clip-path="url(#clip0)">
<path d="M149.564 198.043L135.836 178.113L274.511 107.109L260.783 87.1799L319.196 97.7093L301.967 146.968L288.239 127.039L149.564 198.043Z" fill="url(#paint0_linear)" fill-opacity="0.93"/>
</g>
<g clip-path="url(#clip1)">
<path d="M141.293 247.481L127.565 227.552L266.24 156.548L252.512 136.618L310.925 147.148L293.696 196.406L279.968 176.477L141.293 247.481Z" fill="url(#paint1_linear)" fill-opacity="0.93"/>
</g>
<g clip-path="url(#clip2)">
<path d="M204.379 289.457L190.651 269.528L329.326 198.524L315.598 178.594L374.011 189.124L356.782 238.382L343.054 218.453L204.379 289.457Z" fill="url(#paint2_linear)" fill-opacity="0.93"/>
</g>
<g clip-path="url(#clip3)">
<path d="M249.326 211.504L235.598 191.575L374.273 120.571L360.545 100.642L418.958 111.171L401.729 160.43L388.001 140.5L249.326 211.504Z" fill="url(#paint3_linear)" fill-opacity="0.93"/>
</g>
<g clip-path="url(#clip4)">
<path d="M59.9687 284.324L46.2408 264.394L184.916 193.39L171.188 173.461L229.6 183.99L212.372 233.249L198.644 213.32L59.9687 284.324Z" fill="url(#paint4_linear)" fill-opacity="0.93"/>
</g>
<g clip-path="url(#clip5)">
<path d="M60.5619 370.609L46.8301 350.681L185.521 279.69L171.79 259.761L230.212 270.293L212.985 319.548L199.253 299.619L60.5619 370.609Z" fill="url(#paint5_linear)" fill-opacity="0.93"/>
</g>
<g clip-path="url(#clip6)">
<path d="M166.471 367.775L152.743 347.846L291.418 276.842L277.69 256.912L336.103 267.442L318.874 316.701L305.146 296.771L166.471 367.775Z" fill="url(#paint6_linear)" fill-opacity="0.93"/>
</g>
<g clip-path="url(#clip7)">
<path d="M159.13 449.582L145.402 429.652L284.077 358.648L270.349 338.719L328.761 349.248L311.533 398.507L297.805 378.578L159.13 449.582Z" fill="url(#paint7_linear)" fill-opacity="0.93"/>
</g>
<g clip-path="url(#clip8)">
<path d="M241.985 354.141L228.257 334.212L366.932 263.207L353.204 243.278L411.616 253.807L394.388 303.066L380.66 283.137L241.985 354.141Z" fill="url(#paint8_linear)" fill-opacity="0.93"/>
</g>
<path d="M337.41 37.0586C340.307 35.9902 343.404 35.6968 346.451 36.202C349.498 36.7072 352.411 37.9969 354.953 39.967C357.495 41.9372 359.596 44.5325 361.087 47.5437C362.577 50.5549 363.415 53.8976 363.533 57.302C363.651 60.7064 363.045 64.0772 361.765 67.1424C360.485 70.2076 358.566 72.8814 356.163 74.9479C353.761 77.0145 350.942 78.4159 347.933 79.0392C344.925 79.6625 341.812 79.4902 338.846 78.5361L323.788 84.0903C323.375 84.2426 322.922 84.2141 322.52 84.0106C322.118 83.8072 321.798 83.444 321.624 82.9943C321.45 82.5447 321.436 82.0422 321.583 81.5884C321.73 81.1345 322.029 80.7632 322.418 80.5494L322.635 80.4506L334.088 76.2284C332.878 75.4223 331.747 74.4769 330.713 73.4083L325.818 75.211C325.405 75.3632 324.952 75.3348 324.55 75.1313C324.149 74.9279 323.829 74.5647 323.655 74.115C323.481 73.6654 323.466 73.1629 323.613 72.709C323.761 72.2552 324.059 71.8838 324.449 71.67L324.665 71.5712L328.203 70.2689C327.039 68.502 326.117 66.5576 325.467 64.5002C323.853 59.4094 324.029 54.1411 325.627 49.5354L316.346 52.9588C315.933 53.1111 315.479 53.0826 315.078 52.8792C314.676 52.6757 314.356 52.3125 314.182 51.8629C314.008 51.4132 313.993 50.9107 314.141 50.4569C314.288 50.003 314.587 49.6317 314.976 49.4179L315.192 49.3191L328.078 44.5661C330.407 41.0528 333.662 38.4335 337.41 37.0586ZM348.159 62.1354C347.547 62.8489 346.771 63.4115 345.867 63.7451C344.971 64.0755 344.051 64.144 343.17 63.992L341.63 67.5304C343.354 68.0678 345.226 68.0659 347.032 67.3995C348.846 66.7306 350.332 65.4912 351.391 63.9192L348.159 62.1354ZM335.257 60.8972C335.899 62.9257 337.054 64.6058 338.502 65.8116L340.039 62.2878C339.348 61.5679 338.823 60.6745 338.51 59.6862C338.19 58.6743 338.111 57.6381 338.24 56.6558L335.03 54.8859C334.557 56.8575 334.637 58.9536 335.257 60.8996L335.257 60.8972ZM349.438 49.59L347.9 53.1252C348.545 53.8139 349.062 54.6776 349.378 55.6773C349.699 56.6892 349.78 57.7246 349.651 58.7069L352.883 60.4906C353.338 58.5856 353.295 56.5038 352.654 54.4801C352.015 52.4661 350.871 50.7933 349.438 49.59ZM343.177 55.2573C342.879 55.3508 342.603 55.5108 342.364 55.7274C342.126 55.944 341.93 56.2129 341.79 56.5177C341.65 56.8225 341.567 57.157 341.547 57.501C341.527 57.845 341.57 58.1913 341.674 58.5191C341.778 58.8469 341.94 59.1494 342.151 59.4082C342.362 59.667 342.617 59.8769 342.901 60.0252C343.186 60.1734 343.493 60.2569 343.804 60.2707C344.115 60.2845 344.425 60.2283 344.714 60.1054C345.264 59.8712 345.707 59.4088 345.951 58.8146C346.195 58.2204 346.22 57.54 346.022 56.9153C345.824 56.2905 345.418 55.7695 344.888 55.4606C344.358 55.1518 343.745 55.0789 343.177 55.2573ZM340.879 47.9803C339.065 48.6491 337.579 49.8885 336.518 51.4613L339.726 53.2321C340.34 52.5178 341.117 51.9519 342.024 51.6175C342.939 51.2799 343.882 51.2139 344.78 51.3813L346.315 47.8583C344.522 47.2891 342.627 47.3316 340.879 47.9803Z" fill="#E74140"/>
<path d="M463.266 65.3761C466.162 64.3077 469.259 64.0143 472.306 64.5195C475.354 65.0247 478.266 66.3144 480.808 68.2845C483.351 70.2547 485.452 72.85 486.942 75.8612C488.432 78.8724 489.27 82.2151 489.388 85.6195C489.506 89.0239 488.9 92.3947 487.62 95.4599C486.34 98.5251 484.421 101.199 482.019 103.265C479.616 105.332 476.797 106.733 473.789 107.357C470.781 107.98 467.668 107.808 464.701 106.854L449.643 112.408C449.23 112.56 448.777 112.532 448.375 112.328C447.974 112.125 447.654 111.761 447.48 111.312C447.306 110.862 447.291 110.36 447.438 109.906C447.586 109.452 447.884 109.081 448.274 108.867L448.49 108.768L459.944 104.546C458.734 103.74 457.602 102.794 456.568 101.726L451.674 103.528C451.261 103.681 450.807 103.652 450.406 103.449C450.004 103.245 449.684 102.882 449.51 102.433C449.336 101.983 449.321 101.48 449.469 101.027C449.616 100.573 449.915 100.201 450.304 99.9875L450.52 99.8887L454.058 98.5864C452.895 96.8196 451.972 94.8751 451.322 92.8177C449.709 87.7269 449.885 82.4586 451.482 77.8529L442.201 81.2763C441.788 81.4286 441.335 81.4001 440.933 81.1967C440.532 80.9932 440.211 80.63 440.038 80.1804C439.864 79.7308 439.849 79.2282 439.996 78.7744C440.144 78.3206 440.442 77.9492 440.831 77.7354L441.048 77.6366L453.933 72.8836C456.262 69.3703 459.518 66.751 463.266 65.3761ZM474.014 90.4529C473.403 91.1664 472.627 91.729 471.722 92.0627C470.827 92.393 469.906 92.4615 469.025 92.3095L467.485 95.8479C469.21 96.3853 471.081 96.3834 472.888 95.717C474.701 95.0482 476.188 93.8087 477.246 92.2367L474.014 90.4529ZM461.112 89.2147C461.755 91.2432 462.909 92.9233 464.357 94.1291L465.894 90.6053C465.203 89.8854 464.678 88.992 464.366 88.0037C464.045 86.9918 463.967 85.9556 464.095 84.9733L460.885 83.2034C460.413 85.175 460.492 87.2712 461.113 89.2171L461.112 89.2147ZM475.293 77.9076L473.755 81.4427C474.401 82.1314 474.917 82.9951 475.234 83.9948C475.554 85.0067 475.635 86.0421 475.507 87.0244L478.738 88.8081C479.193 86.9031 479.15 84.8213 478.509 82.7976C477.871 80.7836 476.726 79.1108 475.293 77.9076ZM469.033 83.5748C468.735 83.6684 468.458 83.8283 468.22 84.0449C467.981 84.2615 467.786 84.5304 467.645 84.8352C467.505 85.14 467.422 85.4745 467.402 85.8185C467.382 86.1625 467.426 86.5088 467.53 86.8366C467.633 87.1644 467.796 87.4669 468.007 87.7257C468.218 87.9845 468.473 88.1944 468.757 88.3427C469.041 88.4909 469.348 88.5744 469.659 88.5882C469.971 88.602 470.28 88.5458 470.569 88.4229C471.119 88.1887 471.563 87.7264 471.806 87.1321C472.05 86.5379 472.076 85.8575 471.878 85.2328C471.68 84.608 471.273 84.087 470.744 83.7781C470.214 83.4693 469.601 83.3964 469.033 83.5748ZM466.734 76.2978C464.921 76.9666 463.434 78.206 462.374 79.7788L465.581 81.5496C466.195 80.8353 466.973 80.2695 467.879 79.935C468.795 79.5974 469.738 79.5314 470.636 79.6988L472.171 76.1758C470.378 75.6066 468.482 75.6491 466.734 76.2978Z" fill="#E74140"/>
<path d="M403.484 166.061C406.381 164.992 409.478 164.699 412.525 165.204C415.572 165.709 418.485 166.999 421.027 168.969C423.569 170.939 425.67 173.535 427.161 176.546C428.651 179.557 429.489 182.9 429.607 186.304C429.725 189.709 429.119 193.079 427.839 196.145C426.559 199.21 424.64 201.884 422.238 203.95C419.835 206.017 417.016 207.418 414.007 208.041C410.999 208.665 407.886 208.492 404.92 207.538L389.862 213.093C389.449 213.245 388.996 213.216 388.594 213.013C388.192 212.809 387.872 212.446 387.698 211.997C387.524 211.547 387.51 211.044 387.657 210.591C387.804 210.137 388.103 209.765 388.492 209.552L388.709 209.453L400.162 205.231C398.952 204.424 397.821 203.479 396.787 202.41L391.892 204.213C391.479 204.365 391.026 204.337 390.624 204.134C390.223 203.93 389.903 203.567 389.729 203.117C389.555 202.668 389.54 202.165 389.687 201.711C389.835 201.257 390.133 200.886 390.523 200.672L390.739 200.573L394.277 199.271C393.113 197.504 392.191 195.56 391.541 193.502C389.927 188.412 390.103 183.143 391.701 178.538L382.42 181.961C382.007 182.113 381.554 182.085 381.152 181.881C380.75 181.678 380.43 181.315 380.256 180.865C380.082 180.415 380.067 179.913 380.215 179.459C380.362 179.005 380.661 178.634 381.05 178.42L381.266 178.321L394.152 173.568C396.481 170.055 399.736 167.436 403.484 166.061ZM414.233 191.138C413.622 191.851 412.846 192.414 411.941 192.747C411.045 193.078 410.125 193.146 409.244 192.994L407.704 196.533C409.428 197.07 411.3 197.068 413.106 196.402C414.92 195.733 416.406 194.493 417.465 192.921L414.233 191.138ZM401.331 189.899C401.974 191.928 403.128 193.608 404.576 194.814L406.113 191.29C405.422 190.57 404.897 189.677 404.584 188.688C404.264 187.677 404.185 186.64 404.314 185.658L401.104 183.888C400.632 185.86 400.711 187.956 401.331 189.902L401.331 189.899ZM415.512 178.592L413.974 182.127C414.619 182.816 415.136 183.68 415.453 184.68C415.773 185.691 415.854 186.727 415.725 187.709L418.957 189.493C419.412 187.588 419.369 185.506 418.728 183.482C418.089 181.468 416.945 179.796 415.512 178.592ZM409.251 184.259C408.953 184.353 408.677 184.513 408.438 184.73C408.2 184.946 408.004 185.215 407.864 185.52C407.724 185.825 407.641 186.159 407.621 186.503C407.601 186.847 407.644 187.194 407.748 187.521C407.852 187.849 408.014 188.152 408.225 188.41C408.436 188.669 408.691 188.879 408.976 189.027C409.26 189.176 409.567 189.259 409.878 189.273C410.19 189.287 410.499 189.23 410.788 189.108C411.338 188.873 411.781 188.411 412.025 187.817C412.269 187.223 412.294 186.542 412.096 185.917C411.898 185.293 411.492 184.772 410.962 184.463C410.432 184.154 409.819 184.081 409.251 184.259ZM406.953 176.982C405.139 177.651 403.653 178.891 402.592 180.464L405.8 182.234C406.414 181.52 407.191 180.954 408.098 180.62C409.013 180.282 409.956 180.216 410.854 180.384L412.389 176.861C410.596 176.291 408.701 176.334 406.953 176.982Z" fill="#E74140"/>
<defs>
<linearGradient id="paint0_linear" x1="563.901" y1="-65.2753" x2="231.332" y2="273.348" gradientUnits="userSpaceOnUse">
<stop offset="0.662" stop-color="#FE4743"/>
<stop offset="0.719907" stop-color="#FF4743" stop-opacity="0.550141"/>
<stop offset="0.963556" stop-color="#FE4743" stop-opacity="0"/>
</linearGradient>
<linearGradient id="paint1_linear" x1="555.63" y1="-15.837" x2="223.061" y2="322.786" gradientUnits="userSpaceOnUse">
<stop offset="0.662" stop-color="#FE4743"/>
<stop offset="0.719907" stop-color="#FF4743" stop-opacity="0.550141"/>
<stop offset="0.963556" stop-color="#FE4743" stop-opacity="0"/>
</linearGradient>
<linearGradient id="paint2_linear" x1="618.716" y1="26.139" x2="286.147" y2="364.763" gradientUnits="userSpaceOnUse">
<stop offset="0.662" stop-color="#FE4743"/>
<stop offset="0.719907" stop-color="#FF4743" stop-opacity="0.550141"/>
<stop offset="0.963556" stop-color="#FE4743" stop-opacity="0"/>
</linearGradient>
<linearGradient id="paint3_linear" x1="663.663" y1="-51.8138" x2="331.094" y2="286.81" gradientUnits="userSpaceOnUse">
<stop offset="0.662" stop-color="#FE4743"/>
<stop offset="0.719907" stop-color="#FF4743" stop-opacity="0.550141"/>
<stop offset="0.963556" stop-color="#FE4743" stop-opacity="0"/>
</linearGradient>
<linearGradient id="paint4_linear" x1="474.306" y1="21.0057" x2="141.736" y2="359.629" gradientUnits="userSpaceOnUse">
<stop offset="0.662" stop-color="#FE4743"/>
<stop offset="0.719907" stop-color="#FF4743" stop-opacity="0.550141"/>
<stop offset="0.963556" stop-color="#FE4743" stop-opacity="0"/>
</linearGradient>
<linearGradient id="paint5_linear" x1="474.944" y1="107.335" x2="142.425" y2="445.99" gradientUnits="userSpaceOnUse">
<stop offset="0.662" stop-color="#FE4743"/>
<stop offset="0.719907" stop-color="#FF4743" stop-opacity="0.550141"/>
<stop offset="0.963556" stop-color="#FE4743" stop-opacity="0"/>
</linearGradient>
<linearGradient id="paint6_linear" x1="580.808" y1="104.457" x2="248.239" y2="443.081" gradientUnits="userSpaceOnUse">
<stop offset="0.662" stop-color="#FE4743"/>
<stop offset="0.719907" stop-color="#FF4743" stop-opacity="0.550141"/>
<stop offset="0.963556" stop-color="#FE4743" stop-opacity="0"/>
</linearGradient>
<linearGradient id="paint7_linear" x1="573.467" y1="186.264" x2="240.897" y2="524.887" gradientUnits="userSpaceOnUse">
<stop offset="0.662" stop-color="#FE4743"/>
<stop offset="0.719907" stop-color="#FF4743" stop-opacity="0.550141"/>
<stop offset="0.963556" stop-color="#FE4743" stop-opacity="0"/>
</linearGradient>
<linearGradient id="paint8_linear" x1="656.322" y1="90.8227" x2="323.752" y2="429.446" gradientUnits="userSpaceOnUse">
<stop offset="0.662" stop-color="#FE4743"/>
<stop offset="0.719907" stop-color="#FF4743" stop-opacity="0.550141"/>
<stop offset="0.963556" stop-color="#FE4743" stop-opacity="0"/>
</linearGradient>
<clipPath id="clip0">
<rect width="226.612" height="193.6" fill="white" transform="matrix(0.890107 -0.455751 0.567273 0.82353 103.705 103.279)"/>
</clipPath>
<clipPath id="clip1">
<rect width="226.612" height="193.6" fill="white" transform="matrix(0.890107 -0.455751 0.567273 0.82353 95.4337 152.717)"/>
</clipPath>
<clipPath id="clip2">
<rect width="226.612" height="193.6" fill="white" transform="matrix(0.890108 -0.455751 0.567273 0.82353 158.52 194.693)"/>
</clipPath>
<clipPath id="clip3">
<rect width="226.612" height="193.6" fill="white" transform="matrix(0.890107 -0.455751 0.567273 0.82353 203.467 116.74)"/>
</clipPath>
<clipPath id="clip4">
<rect width="226.612" height="193.6" fill="white" transform="matrix(0.890107 -0.455751 0.567273 0.82353 0 189.107)"/>
</clipPath>
<clipPath id="clip5">
<rect width="226.625" height="193.614" fill="white" transform="matrix(0.890164 -0.45564 0.56739 0.823449 14.6834 275.846)"/>
</clipPath>
<clipPath id="clip6">
<rect width="226.612" height="193.6" fill="white" transform="matrix(0.890107 -0.455751 0.567273 0.82353 120.612 273.011)"/>
</clipPath>
<clipPath id="clip7">
<rect width="226.612" height="193.6" fill="white" transform="matrix(0.890107 -0.455751 0.567273 0.82353 113.27 354.817)"/>
</clipPath>
<clipPath id="clip8">
<rect width="226.612" height="193.6" fill="white" transform="matrix(0.890107 -0.455751 0.567273 0.82353 196.125 259.377)"/>
</clipPath>
</defs>
</svg>
