<svg width="765" height="787" viewBox="0 0 765 787" fill="none" xmlns="http://www.w3.org/2000/svg">
<g filter="url(#filter0_b)">
<path d="M0 123.391C0 77.2768 37.3827 39.894 83.4966 39.894H681.503C727.617 39.894 765 77.2767 765 123.391V703.503C765 749.617 727.617 787 681.503 787H83.4966C37.3827 787 0 749.617 0 703.503V123.391Z" fill="url(#paint0_linear)"/>
<path d="M0.848765 123.391C0.848765 77.7456 37.8515 40.7428 83.4966 40.7428H681.503C727.148 40.7428 764.151 77.7455 764.151 123.391V703.503C764.151 749.148 727.148 786.151 681.503 786.151H83.4966C37.8515 786.151 0.848765 749.149 0.848765 703.503V123.391Z" stroke="#985E63" stroke-width="1.69753"/>
</g>
<path d="M75.528 94.984H84.264C86.2267 94.984 87.6453 95.4533 88.52 96.392C89.416 97.3307 89.864 98.7067 89.864 100.52C89.864 102.013 89.5867 103.187 89.032 104.04C88.4773 104.872 87.592 105.427 86.376 105.704V105.832C87.7413 106.109 88.7013 106.685 89.256 107.56C89.8107 108.435 90.088 109.64 90.088 111.176C90.088 113.011 89.6507 114.44 88.776 115.464C87.9227 116.488 86.3973 117 84.2 117H75.528V94.984ZM83.208 104.424C84.4027 104.424 85.256 104.168 85.768 103.656C86.28 103.144 86.536 102.301 86.536 101.128C86.536 100.253 86.44 99.592 86.248 99.144C86.0773 98.6747 85.7467 98.344 85.256 98.152C84.7867 97.9387 84.104 97.832 83.208 97.832H78.824V104.424H83.208ZM83.368 114.184C84.264 114.184 84.9467 114.077 85.416 113.864C85.9067 113.651 86.248 113.299 86.44 112.808C86.6533 112.317 86.76 111.635 86.76 110.76C86.76 109.437 86.5147 108.531 86.024 108.04C85.5333 107.528 84.648 107.272 83.368 107.272H78.824V114.184H83.368ZM103.461 114.824H103.269C102.949 115.635 102.415 116.243 101.669 116.648C100.943 117.053 99.9512 117.256 98.6925 117.256C97.3698 117.256 96.3672 117.043 95.6845 116.616C95.0232 116.168 94.5752 115.507 94.3405 114.632C94.1058 113.736 93.9885 112.52 93.9885 110.984V100.68H97.0925V109.768C97.0925 111.261 97.1565 112.328 97.2845 112.968C97.4338 113.587 97.7005 113.992 98.0845 114.184C98.4685 114.376 99.1298 114.472 100.069 114.472C101.05 114.472 101.775 114.28 102.245 113.896C102.714 113.512 103.013 112.968 103.141 112.264C103.269 111.539 103.333 110.493 103.333 109.128V100.68H106.437V117H103.589L103.461 114.824ZM116.496 123.496C114.747 123.496 113.126 123.4 111.632 123.208V120.744L112.656 120.776C113.894 120.84 114.95 120.872 115.824 120.872C117.19 120.872 118.171 120.723 118.768 120.424C119.366 120.147 119.75 119.667 119.92 118.984C120.091 118.323 120.176 117.256 120.176 115.784V114.92H119.984C119.664 115.645 119.152 116.2 118.448 116.584C117.766 116.947 116.795 117.128 115.536 117.128C114.192 117.128 113.179 116.904 112.496 116.456C111.835 116.008 111.387 115.336 111.152 114.44C110.939 113.523 110.832 112.264 110.832 110.664V100.68H113.936V109.672C113.936 111.187 114 112.253 114.128 112.872C114.278 113.491 114.544 113.896 114.928 114.088C115.312 114.28 115.974 114.376 116.912 114.376C117.894 114.376 118.619 114.195 119.088 113.832C119.558 113.448 119.856 112.904 119.984 112.2C120.112 111.475 120.176 110.429 120.176 109.064V100.68H123.28V114.952C123.28 117.192 123.131 118.888 122.832 120.04C122.534 121.213 121.904 122.077 120.944 122.632C119.984 123.208 118.502 123.496 116.496 123.496Z" fill="white"/>
<g filter="url(#filter1_i)">
<path d="M74 131L176 131" stroke="#FFF8F8" stroke-width="2.68573" stroke-linecap="round"/>
</g>
<path d="M241.864 118.256C239.56 118.256 237.309 118.107 235.112 117.808V115.056C237.416 115.291 239.336 115.408 240.872 115.408C241.853 115.408 242.621 115.355 243.176 115.248C243.752 115.141 244.211 114.96 244.552 114.704C244.851 114.448 245.043 114.107 245.128 113.68C245.235 113.232 245.288 112.624 245.288 111.856C245.288 110.896 245.235 110.224 245.128 109.84C245.043 109.435 244.84 109.147 244.52 108.976C244.2 108.784 243.656 108.635 242.888 108.528L238.6 107.952C237.469 107.803 236.616 107.483 236.04 106.992C235.464 106.501 235.069 105.861 234.856 105.072C234.664 104.283 234.568 103.269 234.568 102.032C234.568 100.347 234.835 99.0453 235.368 98.128C235.923 97.2107 236.701 96.5813 237.704 96.24C238.728 95.8987 240.04 95.728 241.64 95.728C242.728 95.728 243.805 95.7813 244.872 95.888C245.939 95.9733 246.856 96.1013 247.624 96.272V98.96C246.131 98.704 244.381 98.576 242.376 98.576C241.352 98.576 240.552 98.6293 239.976 98.736C239.4 98.8427 238.952 99.024 238.632 99.28C238.312 99.536 238.099 99.8667 237.992 100.272C237.907 100.656 237.864 101.2 237.864 101.904C237.864 102.736 237.907 103.344 237.992 103.728C238.099 104.112 238.291 104.389 238.568 104.56C238.845 104.709 239.315 104.827 239.976 104.912L244.328 105.488C245.309 105.616 246.099 105.84 246.696 106.16C247.293 106.459 247.752 106.992 248.072 107.76C248.413 108.571 248.584 109.829 248.584 111.536C248.584 113.371 248.328 114.779 247.816 115.76C247.325 116.72 246.6 117.381 245.64 117.744C244.701 118.085 243.443 118.256 241.864 118.256ZM264.364 110.864H254.956C254.956 112.357 255.03 113.413 255.18 114.032C255.35 114.651 255.724 115.077 256.3 115.312C256.897 115.547 257.889 115.664 259.276 115.664C260.428 115.664 261.942 115.557 263.82 115.344V117.776C263.222 117.925 262.433 118.043 261.452 118.128C260.47 118.213 259.521 118.256 258.604 118.256C256.577 118.256 255.084 118 254.124 117.488C253.185 116.955 252.566 116.123 252.268 114.992C251.969 113.861 251.82 112.155 251.82 109.872C251.82 107.632 251.958 105.947 252.236 104.816C252.513 103.664 253.11 102.811 254.028 102.256C254.945 101.701 256.385 101.424 258.348 101.424C260.246 101.424 261.612 101.701 262.444 102.256C263.297 102.789 263.83 103.611 264.044 104.72C264.257 105.808 264.364 107.515 264.364 109.84V110.864ZM258.284 104.016C257.26 104.016 256.524 104.133 256.076 104.368C255.649 104.603 255.361 105.029 255.212 105.648C255.062 106.267 254.977 107.28 254.956 108.688H261.356V108.528C261.356 107.163 261.27 106.171 261.1 105.552C260.929 104.933 260.63 104.528 260.204 104.336C259.798 104.123 259.158 104.016 258.284 104.016ZM268.239 118V94.224H271.343V118H268.239ZM275.771 118V94.224H278.875V118H275.771Z" fill="white"/>
<defs>
<filter id="filter0_b" x="-426.08" y="-386.186" width="1617.16" height="1599.27" filterUnits="userSpaceOnUse" color-interpolation-filters="sRGB">
<feFlood flood-opacity="0" result="BackgroundImageFix"/>
<feGaussianBlur in="BackgroundImage" stdDeviation="213.04"/>
<feComposite in2="SourceAlpha" operator="in" result="effect1_backgroundBlur"/>
<feBlend mode="normal" in="SourceGraphic" in2="effect1_backgroundBlur" result="shape"/>
</filter>
<filter id="filter1_i" x="72.6571" y="129.657" width="104.686" height="8.05719" filterUnits="userSpaceOnUse" color-interpolation-filters="sRGB">
<feFlood flood-opacity="0" result="BackgroundImageFix"/>
<feBlend mode="normal" in="SourceGraphic" in2="BackgroundImageFix" result="shape"/>
<feColorMatrix in="SourceAlpha" type="matrix" values="0 0 0 0 0 0 0 0 0 0 0 0 0 0 0 0 0 0 127 0" result="hardAlpha"/>
<feOffset dy="5.37145"/>
<feGaussianBlur stdDeviation="167.858"/>
<feComposite in2="hardAlpha" operator="arithmetic" k2="-1" k3="1"/>
<feColorMatrix type="matrix" values="0 0 0 0 0 0 0 0 0 0 0 0 0 0 0 0 0 0 0.25 0"/>
<feBlend mode="normal" in2="shape" result="effect1_innerShadow"/>
</filter>
<linearGradient id="paint0_linear" x1="382.5" y1="0" x2="382.5" y2="787" gradientUnits="userSpaceOnUse">
<stop stop-color="#A16062"/>
<stop offset="1" stop-color="#FF9292" stop-opacity="0"/>
</linearGradient>
</defs>
</svg>
