<svg width="1009" height="303" viewBox="0 0 1009 303" fill="none" xmlns="http://www.w3.org/2000/svg">
<g filter="url(#filter0_i)">
<path d="M104.019 256.42L125.189 250.62V139.55C125.189 134.523 124.803 131.237 124.029 129.69C123.256 127.95 121.226 126.403 117.939 125.05L102.859 116.35L104.309 90.54H197.399L198.559 120.12L177.679 125.92V239.02C177.679 243.66 177.969 246.657 178.549 248.01C179.323 249.363 181.159 250.717 184.059 252.07L198.849 261.06L197.979 286H105.469L104.019 256.42ZM214.711 258.16L232.691 252.94V182.76C232.691 178.507 232.401 175.8 231.821 174.64C231.241 173.287 229.694 171.837 227.181 170.29L214.421 163.33L215.291 141.58L221.671 140.42C246.998 135.393 265.268 132.687 276.481 132.3C278.028 136.36 279.284 140.807 280.251 145.64C292.044 140.227 301.614 136.553 308.961 134.62C316.501 132.493 323.558 131.43 330.131 131.43C360.871 131.43 376.241 149.797 376.241 186.53V243.37C376.241 247.43 376.531 250.137 377.111 251.49C377.691 252.843 379.334 254.293 382.041 255.84L395.961 263.96L394.801 285.71H314.761L313.311 258.16L327.521 254.1V199.29C327.521 190.59 327.231 184.5 326.651 181.02C326.071 177.54 324.428 174.833 321.721 172.9C319.208 170.967 314.664 170 308.091 170C301.131 170 292.334 171.063 281.701 173.19V243.37C281.701 247.43 281.991 250.137 282.571 251.49C283.151 252.843 284.698 254.293 287.211 255.84L301.421 263.96L300.261 285.71H216.161L214.711 258.16ZM536.656 74.3L585.956 61.25L598.136 105.33L548.836 118.67L536.656 74.3ZM405.866 259.32L426.166 253.23V168.26L405.866 167.97V139.55L426.166 138.39V119.54C426.166 102.14 431.193 88.6067 441.246 78.94C451.493 69.08 465.606 64.15 483.586 64.15C495.38 64.15 508.43 65.4067 522.736 67.92L516.066 107.36C507.56 105.04 500.116 103.493 493.736 102.72C487.55 101.753 481.266 101.367 474.886 101.56V135.78L593.496 133.75V243.66C593.496 247.72 593.786 250.427 594.366 251.78C594.946 253.133 596.59 254.583 599.296 256.13L613.506 264.25L612.636 286H525.636L524.186 259.32L544.776 253.23V182.76C544.776 178.507 544.293 175.703 543.326 174.35C542.553 172.803 540.33 171.063 536.656 169.13L474.886 168.84V243.66C474.886 247.72 475.176 250.427 475.756 251.78C476.336 253.133 477.98 254.583 480.686 256.13L498.666 265.99L497.796 286H406.736L405.866 259.32ZM625.355 258.16L643.335 252.94V182.76C643.335 178.507 643.045 175.8 642.465 174.64C641.885 173.287 640.339 171.837 637.825 170.29L625.065 163.33L625.935 141.58L632.315 140.42C657.642 135.393 675.912 132.687 687.125 132.3C688.672 136.36 689.929 140.807 690.895 145.64C702.689 140.227 712.259 136.553 719.605 134.62C727.145 132.493 734.202 131.43 740.775 131.43C771.515 131.43 786.885 149.797 786.885 186.53V243.37C786.885 247.43 787.175 250.137 787.755 251.49C788.335 252.843 789.979 254.293 792.685 255.84L806.605 263.96L805.445 285.71H725.405L723.955 258.16L738.165 254.1V199.29C738.165 190.59 737.875 184.5 737.295 181.02C736.715 177.54 735.072 174.833 732.365 172.9C729.852 170.967 725.309 170 718.735 170C711.775 170 702.979 171.063 692.345 173.19V243.37C692.345 247.43 692.635 250.137 693.215 251.49C693.795 252.843 695.342 254.293 697.855 255.84L712.065 263.96L710.905 285.71H626.805L625.355 258.16Z" fill="white"/>
</g>
<path fill-rule="evenodd" clip-rule="evenodd" d="M832.073 150.554C832.298 151.781 832.673 153.273 832.907 153.871L833.333 154.958L835.47 154.683C838.113 154.344 876.197 148.303 905.781 143.53C917.918 141.572 929.111 139.649 930.656 139.259C935.979 137.911 941.314 134.65 944.849 130.582C947.534 127.493 949.787 121.992 949.934 118.161C950.08 114.39 948.697 109.465 946.584 106.225C944.703 103.341 939.851 99.0931 936.526 97.4197C933.605 95.9489 928.094 94.2922 925.023 93.9612C921.284 93.5584 914.225 94.2616 910.748 95.383C906.469 96.7635 901.713 99.6576 898.832 102.635C896.811 104.723 896.215 105.646 894.654 109.118C893.056 112.669 892.825 113.538 892.769 116.202C892.709 119.108 893.526 123.486 895.102 128.703C895.933 131.454 895.573 131.348 900.934 130.418C902.545 130.139 903.96 129.697 904.079 129.436C904.198 129.175 903.808 126.939 903.213 124.468C901.592 117.737 901.526 116.059 902.747 112.689C905.035 106.374 911.354 102.013 919.096 101.405C930.139 100.538 939.405 106.735 940.63 115.806C941.545 122.581 936.767 129.079 928.965 131.669C927.13 132.278 918.759 133.847 908.884 135.432C899.57 136.927 878.945 140.23 863.052 142.772C847.159 145.315 833.595 147.604 832.91 147.859L831.665 148.323L832.073 150.554ZM807.878 224.575C803.86 241.371 809.395 257.585 823.28 269.691C834.505 279.479 849.897 285.243 866.219 285.771C875.832 286.081 887.54 284.023 896.044 280.527C906.307 276.308 914.405 270.202 920.985 261.722C923.859 258.019 928.262 248.212 928.995 243.883C929.805 239.094 929.911 235.045 929.338 230.719C928.627 225.352 926.427 217.236 925.568 216.812C924.608 216.338 917.928 217.387 917.628 218.06C917.494 218.359 917.941 220.857 918.622 223.612C921.463 235.111 921.184 241.818 917.517 250.098C915.454 254.757 913.215 258.118 909.739 261.772C895.613 276.625 871.888 282.135 850.237 275.592C836.897 271.561 826.496 263.725 820.583 253.252C816.786 246.527 815.098 238.643 815.885 231.299C816.405 226.438 819.494 218.528 822.579 214.158C826.368 208.791 832.117 203.726 838.464 200.164C842.311 198.005 849.228 195.372 853.526 194.43C855.29 194.043 869.964 191.612 886.135 189.027C956.264 177.817 950.73 178.752 951.048 178.058C951.304 177.499 950.372 173.065 949.77 171.985C949.341 171.213 950.84 171.012 919.723 176.022C907.448 177.998 887.39 181.224 875.149 183.191C862.908 185.159 851.437 187.127 849.658 187.566C836.01 190.932 823.627 198.69 815.907 208.712C813.203 212.222 808.709 221.1 807.878 224.575ZM835.559 164.751C835.875 165.929 836.39 166.802 836.85 166.941C837.271 167.068 842.743 166.351 849.01 165.347C855.278 164.344 876.441 160.955 896.039 157.816C915.638 154.677 933.57 151.598 935.889 150.973C943.859 148.827 951.348 144.307 956.917 138.281C959.21 135.8 959.621 135.115 962.075 129.685C965.252 122.653 965.733 119.873 964.877 113.464C963.502 103.165 956.787 93.8919 946.34 87.8694C943.16 86.0357 941.846 85.5057 936.263 83.8041C930.535 82.0586 929.361 81.8133 925.384 81.5324C898.755 79.651 877.135 96.1291 877.48 118.044C877.518 120.443 879.843 131.491 880.627 132.999C880.906 133.534 881.287 133.581 883.136 133.307C887.629 132.641 887.396 133.269 885.727 126.338C883.445 116.857 883.796 111.952 887.234 105.302C890.833 98.338 896.19 93.5792 904.173 90.255C913.693 86.2903 923.632 85.774 933.59 88.7274C943.23 91.5869 950.091 96.5199 954.492 103.757C964.623 120.414 954.2 140.605 932.65 146.07C931.19 146.439 910.714 149.836 887.148 153.617C834.826 162.011 837.95 161.504 836.54 161.825C835.021 162.171 834.935 162.426 835.559 164.751ZM861.638 104.504C859.777 110.339 859.256 118.618 860.395 124.245C861.071 127.58 863.405 136.266 863.646 136.339C864.086 136.472 870.819 135.352 871.495 135.033C872.071 134.761 871.947 133.637 870.845 129.152C870.096 126.102 869.32 122.119 869.122 120.302C867.764 107.883 873.442 95.3999 884.499 86.4932C888.57 83.2137 893.362 80.5578 899.079 78.4125C907.845 75.1229 916.839 73.8805 926.585 74.6135C930.689 74.9219 931.691 75.1438 939.131 77.3923C946.57 79.6407 947.508 80.005 950.878 81.9552C967.593 91.6284 975.982 107.351 973.236 123.862C972.846 126.209 972.124 128.275 970.269 132.353C968.047 137.237 967.531 138.079 964.771 141.316C957.976 149.286 948.07 155.295 937.342 157.956C935.227 158.48 920.267 161.021 904.097 163.603C887.928 166.184 866.943 169.534 857.464 171.048C847.985 172.562 839.755 173.967 839.174 174.171C838.141 174.534 838.128 174.594 838.586 176.918C838.844 178.225 839.282 179.743 839.56 180.292C840.184 181.526 839.538 181.569 853.268 179.377C901.672 171.65 935.597 166.091 938.986 165.33C947.519 163.417 957.907 158.495 964.45 153.267C986.245 135.85 989.04 107.8 970.977 87.7455C963.933 79.9242 955.519 74.5876 944.211 70.7693C934.266 67.4112 925.63 66.384 914.715 67.2615C893.216 68.9901 874.973 79.5038 865.62 95.5563C863.212 99.6898 863.079 99.9873 861.638 104.504ZM825.039 228.319C821.603 242.529 829.025 256.985 844.068 265.385C848.655 267.947 858.157 270.813 863.345 271.2C880.094 272.448 894.941 266.878 904.652 255.703C906.281 253.828 907.136 252.356 909.037 248.149C911.63 242.41 912.094 240.306 911.968 234.852C911.899 231.858 909.74 221.664 908.827 220.02C908.402 219.256 908.285 219.226 906.417 219.423C905.336 219.537 903.969 219.803 903.378 220.014C902.323 220.392 902.33 220.506 903.742 226.335C904.533 229.6 905.214 233.593 905.256 235.208C905.624 249.403 893.539 261.99 876.516 265.142C869.2 266.497 862.661 266.099 855.255 263.847C839.359 259.014 829.62 246.322 831.136 232.413C831.591 228.23 834.382 222.01 837.386 218.483C842.968 211.928 850.618 207.731 860.2 205.968C862.457 205.552 881.184 202.514 901.817 199.216C951.608 191.257 953.507 190.929 953.984 190.221C954.41 189.589 953.566 185.739 952.962 185.556C952.766 185.497 945.78 186.543 937.438 187.882C929.097 189.22 908.354 192.545 891.344 195.271C874.333 197.996 859.022 200.501 857.318 200.837C847.311 202.81 837.798 208.242 831.644 215.496C829.34 218.212 825.84 225.007 825.039 228.319ZM839.671 233.315C839.383 236.689 839.448 237.469 840.271 240.561C841.243 244.216 844.199 248.818 847.263 251.447C850.481 254.208 853.787 255.962 858.395 257.355C866.154 259.7 872.6 259.497 880.134 256.67C887.635 253.855 892.024 249.996 894.836 243.741C897.266 238.338 897.31 234.99 895.064 226.396C894.286 223.42 893.71 222.059 893.161 221.893C892.283 221.628 886.965 222.374 885.792 222.928C885.163 223.224 885.236 224.098 886.238 228.259C887.921 235.246 887.947 237.358 886.394 240.922C883.104 248.474 874.153 252.625 864.321 251.157C856.388 249.973 849.553 243.775 848.829 237.109C848.25 231.781 850.262 227.522 855.116 223.799C859.341 220.56 855 221.407 923.889 210.375C939.366 207.896 953.26 205.634 954.766 205.348C957.917 204.748 958.078 204.463 957.209 201.007C956.376 197.689 956.106 197.676 940.265 200.172C913.585 204.374 863.854 212.41 861.07 212.969C855.342 214.118 849.713 217.012 845.952 220.743C842.997 223.674 839.977 229.719 839.671 233.315Z" fill="white"/>
<defs>
<filter id="filter0_i" x="102.859" y="61.25" width="703.746" height="228.75" filterUnits="userSpaceOnUse" color-interpolation-filters="sRGB">
<feFlood flood-opacity="0" result="BackgroundImageFix"/>
<feBlend mode="normal" in="SourceGraphic" in2="BackgroundImageFix" result="shape"/>
<feColorMatrix in="SourceAlpha" type="matrix" values="0 0 0 0 0 0 0 0 0 0 0 0 0 0 0 0 0 0 127 0" result="hardAlpha"/>
<feOffset dy="4"/>
<feGaussianBlur stdDeviation="2"/>
<feComposite in2="hardAlpha" operator="arithmetic" k2="-1" k3="1"/>
<feColorMatrix type="matrix" values="0 0 0 0 0 0 0 0 0 0 0 0 0 0 0 0 0 0 0.25 0"/>
<feBlend mode="normal" in2="shape" result="effect1_innerShadow"/>
</filter>
</defs>
</svg>
