<svg width="1228" height="770" viewBox="0 0 1228 770" fill="none" xmlns="http://www.w3.org/2000/svg">
<g filter="url(#filter0_d)">
<g filter="url(#filter1_i)">
<path d="M104.019 417.42L125.189 411.62V300.55C125.189 295.523 124.803 292.237 124.029 290.69C123.256 288.95 121.226 287.403 117.939 286.05L102.859 277.35L104.309 251.54H197.399L198.559 281.12L177.679 286.92V400.02C177.679 404.66 177.969 407.657 178.549 409.01C179.323 410.363 181.159 411.717 184.059 413.07L198.849 422.06L197.979 447H105.469L104.019 417.42ZM214.711 419.16L232.691 413.94V343.76C232.691 339.507 232.401 336.8 231.821 335.64C231.241 334.287 229.694 332.837 227.181 331.29L214.421 324.33L215.291 302.58L221.671 301.42C246.998 296.393 265.268 293.687 276.481 293.3C278.028 297.36 279.284 301.807 280.251 306.64C292.044 301.227 301.614 297.553 308.961 295.62C316.501 293.493 323.558 292.43 330.131 292.43C360.871 292.43 376.241 310.797 376.241 347.53V404.37C376.241 408.43 376.531 411.137 377.111 412.49C377.691 413.843 379.334 415.293 382.041 416.84L395.961 424.96L394.801 446.71H314.761L313.311 419.16L327.521 415.1V360.29C327.521 351.59 327.231 345.5 326.651 342.02C326.071 338.54 324.428 335.833 321.721 333.9C319.208 331.967 314.664 331 308.091 331C301.131 331 292.334 332.063 281.701 334.19V404.37C281.701 408.43 281.991 411.137 282.571 412.49C283.151 413.843 284.698 415.293 287.211 416.84L301.421 424.96L300.261 446.71H216.161L214.711 419.16ZM536.656 235.3L585.956 222.25L598.136 266.33L548.836 279.67L536.656 235.3ZM405.866 420.32L426.166 414.23V329.26L405.866 328.97V300.55L426.166 299.39V280.54C426.166 263.14 431.193 249.607 441.246 239.94C451.493 230.08 465.606 225.15 483.586 225.15C495.38 225.15 508.43 226.407 522.736 228.92L516.066 268.36C507.56 266.04 500.116 264.493 493.736 263.72C487.55 262.753 481.266 262.367 474.886 262.56V296.78L593.496 294.75V404.66C593.496 408.72 593.786 411.427 594.366 412.78C594.946 414.133 596.59 415.583 599.296 417.13L613.506 425.25L612.636 447H525.636L524.186 420.32L544.776 414.23V343.76C544.776 339.507 544.293 336.703 543.326 335.35C542.553 333.803 540.33 332.063 536.656 330.13L474.886 329.84V404.66C474.886 408.72 475.176 411.427 475.756 412.78C476.336 414.133 477.98 415.583 480.686 417.13L498.666 426.99L497.796 447H406.736L405.866 420.32ZM625.355 419.16L643.335 413.94V343.76C643.335 339.507 643.045 336.8 642.465 335.64C641.885 334.287 640.339 332.837 637.825 331.29L625.065 324.33L625.935 302.58L632.315 301.42C657.642 296.393 675.912 293.687 687.125 293.3C688.672 297.36 689.929 301.807 690.895 306.64C702.689 301.227 712.259 297.553 719.605 295.62C727.145 293.493 734.202 292.43 740.775 292.43C771.515 292.43 786.885 310.797 786.885 347.53V404.37C786.885 408.43 787.175 411.137 787.755 412.49C788.335 413.843 789.979 415.293 792.685 416.84L806.605 424.96L805.445 446.71H725.405L723.955 419.16L738.165 415.1V360.29C738.165 351.59 737.875 345.5 737.295 342.02C736.715 338.54 735.072 335.833 732.365 333.9C729.852 331.967 725.309 331 718.735 331C711.775 331 702.979 332.063 692.345 334.19V404.37C692.345 408.43 692.635 411.137 693.215 412.49C693.795 413.843 695.342 415.293 697.855 416.84L712.065 424.96L710.905 446.71H626.805L625.355 419.16Z" fill="white"/>
</g>
<path fill-rule="evenodd" clip-rule="evenodd" d="M832.073 311.554C832.298 312.781 832.673 314.273 832.907 314.871L833.333 315.958L835.47 315.683C838.113 315.344 876.197 309.303 905.781 304.53C917.918 302.572 929.111 300.649 930.656 300.259C935.979 298.911 941.314 295.65 944.849 291.582C947.534 288.493 949.787 282.992 949.934 279.161C950.08 275.39 948.697 270.465 946.584 267.225C944.703 264.341 939.851 260.093 936.526 258.42C933.605 256.949 928.094 255.292 925.023 254.961C921.284 254.558 914.225 255.262 910.748 256.383C906.469 257.763 901.713 260.658 898.832 263.635C896.811 265.723 896.215 266.646 894.654 270.118C893.056 273.669 892.825 274.538 892.769 277.202C892.709 280.108 893.526 284.486 895.102 289.703C895.933 292.454 895.573 292.348 900.934 291.418C902.545 291.139 903.96 290.697 904.079 290.436C904.198 290.175 903.808 287.939 903.213 285.468C901.592 278.737 901.526 277.059 902.747 273.689C905.035 267.374 911.354 263.013 919.096 262.405C930.139 261.538 939.405 267.735 940.63 276.806C941.545 283.581 936.767 290.079 928.965 292.669C927.13 293.278 918.759 294.847 908.884 296.432C899.57 297.927 878.945 301.23 863.052 303.772C847.159 306.315 833.595 308.604 832.91 308.859L831.665 309.323L832.073 311.554ZM807.878 385.575C803.86 402.371 809.395 418.585 823.28 430.691C834.505 440.479 849.897 446.243 866.219 446.771C875.832 447.081 887.54 445.023 896.044 441.527C906.307 437.308 914.405 431.202 920.985 422.722C923.859 419.019 928.262 409.212 928.995 404.883C929.805 400.094 929.911 396.045 929.338 391.719C928.627 386.352 926.427 378.236 925.568 377.812C924.608 377.338 917.928 378.387 917.628 379.06C917.494 379.359 917.941 381.857 918.622 384.612C921.463 396.111 921.184 402.818 917.517 411.098C915.454 415.757 913.215 419.118 909.739 422.772C895.613 437.625 871.888 443.135 850.237 436.592C836.897 432.561 826.496 424.725 820.583 414.252C816.786 407.527 815.098 399.643 815.885 392.299C816.405 387.438 819.494 379.528 822.579 375.158C826.368 369.791 832.117 364.726 838.464 361.164C842.311 359.005 849.228 356.372 853.526 355.43C855.29 355.043 869.964 352.612 886.135 350.027C956.264 338.817 950.73 339.752 951.048 339.058C951.304 338.499 950.372 334.065 949.77 332.985C949.341 332.213 950.84 332.012 919.723 337.022C907.448 338.998 887.39 342.224 875.149 344.191C862.908 346.159 851.437 348.127 849.658 348.566C836.01 351.932 823.627 359.69 815.907 369.712C813.203 373.222 808.709 382.1 807.878 385.575ZM835.559 325.751C835.875 326.929 836.39 327.802 836.85 327.941C837.271 328.068 842.743 327.351 849.01 326.347C855.278 325.344 876.441 321.955 896.039 318.816C915.638 315.677 933.57 312.598 935.889 311.973C943.859 309.827 951.348 305.307 956.917 299.281C959.21 296.8 959.621 296.115 962.075 290.685C965.252 283.653 965.733 280.873 964.877 274.464C963.502 264.165 956.787 254.892 946.34 248.869C943.16 247.036 941.846 246.506 936.263 244.804C930.535 243.059 929.361 242.813 925.384 242.532C898.755 240.651 877.135 257.129 877.48 279.044C877.518 281.443 879.843 292.491 880.627 293.999C880.906 294.534 881.287 294.581 883.136 294.307C887.629 293.641 887.396 294.269 885.727 287.338C883.445 277.857 883.796 272.952 887.234 266.302C890.833 259.338 896.19 254.579 904.173 251.255C913.693 247.29 923.632 246.774 933.59 249.727C943.23 252.587 950.091 257.52 954.492 264.757C964.623 281.414 954.2 301.605 932.65 307.07C931.19 307.439 910.714 310.836 887.148 314.617C834.826 323.011 837.95 322.504 836.54 322.825C835.021 323.171 834.935 323.426 835.559 325.751ZM861.638 265.504C859.777 271.339 859.256 279.618 860.395 285.245C861.071 288.58 863.405 297.266 863.646 297.339C864.086 297.472 870.819 296.352 871.495 296.033C872.071 295.761 871.947 294.637 870.845 290.152C870.096 287.102 869.32 283.119 869.122 281.302C867.764 268.883 873.442 256.4 884.499 247.493C888.57 244.214 893.362 241.558 899.079 239.412C907.845 236.123 916.839 234.88 926.585 235.614C930.689 235.922 931.691 236.144 939.131 238.392C946.57 240.641 947.508 241.005 950.878 242.955C967.593 252.628 975.982 268.351 973.236 284.862C972.846 287.209 972.124 289.275 970.269 293.353C968.047 298.237 967.531 299.079 964.771 302.316C957.976 310.286 948.07 316.295 937.342 318.956C935.227 319.48 920.267 322.021 904.097 324.603C887.928 327.184 866.943 330.534 857.464 332.048C847.985 333.562 839.755 334.967 839.174 335.171C838.141 335.534 838.128 335.594 838.586 337.918C838.844 339.225 839.282 340.743 839.56 341.292C840.184 342.526 839.538 342.569 853.268 340.377C901.672 332.65 935.597 327.091 938.986 326.33C947.519 324.417 957.907 319.495 964.45 314.267C986.245 296.85 989.04 268.8 970.977 248.745C963.933 240.924 955.519 235.588 944.211 231.769C934.266 228.411 925.63 227.384 914.715 228.261C893.216 229.99 874.973 240.504 865.62 256.556C863.212 260.69 863.079 260.987 861.638 265.504ZM825.039 389.319C821.603 403.529 829.025 417.985 844.068 426.385C848.655 428.947 858.157 431.813 863.345 432.2C880.094 433.448 894.941 427.878 904.652 416.703C906.281 414.828 907.136 413.356 909.037 409.149C911.63 403.41 912.094 401.306 911.968 395.852C911.899 392.858 909.74 382.664 908.827 381.02C908.402 380.256 908.285 380.226 906.417 380.423C905.336 380.537 903.969 380.803 903.378 381.014C902.323 381.392 902.33 381.506 903.742 387.335C904.533 390.6 905.214 394.593 905.256 396.208C905.624 410.403 893.539 422.99 876.516 426.142C869.2 427.497 862.661 427.099 855.255 424.847C839.359 420.014 829.62 407.322 831.136 393.413C831.591 389.23 834.382 383.01 837.386 379.483C842.968 372.928 850.618 368.731 860.2 366.968C862.457 366.552 881.184 363.514 901.817 360.216C951.608 352.257 953.507 351.929 953.984 351.221C954.41 350.589 953.566 346.739 952.962 346.556C952.766 346.497 945.78 347.543 937.438 348.882C929.097 350.22 908.354 353.545 891.344 356.271C874.333 358.996 859.022 361.501 857.318 361.837C847.311 363.81 837.798 369.242 831.644 376.496C829.34 379.212 825.84 386.007 825.039 389.319ZM839.671 394.315C839.383 397.689 839.448 398.469 840.271 401.561C841.243 405.216 844.199 409.818 847.263 412.447C850.481 415.208 853.787 416.962 858.395 418.355C866.154 420.7 872.6 420.497 880.134 417.67C887.635 414.855 892.024 410.996 894.836 404.741C897.266 399.338 897.31 395.99 895.064 387.396C894.286 384.42 893.71 383.059 893.161 382.893C892.283 382.628 886.965 383.374 885.792 383.928C885.163 384.224 885.236 385.098 886.238 389.259C887.921 396.246 887.947 398.358 886.394 401.922C883.104 409.474 874.153 413.625 864.321 412.157C856.388 410.973 849.553 404.775 848.829 398.109C848.25 392.781 850.262 388.522 855.116 384.799C859.341 381.56 855 382.407 923.889 371.375C939.366 368.896 953.26 366.634 954.766 366.348C957.917 365.748 958.078 365.463 957.209 362.007C956.376 358.689 956.106 358.676 940.265 361.172C913.585 365.374 863.854 373.41 861.07 373.969C855.342 375.118 849.713 378.012 845.952 381.743C842.997 384.674 839.977 390.719 839.671 394.315Z" fill="white"/>
</g>
<defs>
<filter id="filter0_d" x="-4" y="0" width="1236" height="778" filterUnits="userSpaceOnUse" color-interpolation-filters="sRGB">
<feFlood flood-opacity="0" result="BackgroundImageFix"/>
<feColorMatrix in="SourceAlpha" type="matrix" values="0 0 0 0 0 0 0 0 0 0 0 0 0 0 0 0 0 0 127 0" result="hardAlpha"/>
<feOffset dy="4"/>
<feGaussianBlur stdDeviation="2"/>
<feComposite in2="hardAlpha" operator="out"/>
<feColorMatrix type="matrix" values="0 0 0 0 0 0 0 0 0 0 0 0 0 0 0 0 0 0 0.25 0"/>
<feBlend mode="normal" in2="BackgroundImageFix" result="effect1_dropShadow"/>
<feBlend mode="normal" in="SourceGraphic" in2="effect1_dropShadow" result="shape"/>
</filter>
<filter id="filter1_i" x="102.859" y="222.25" width="703.746" height="228.75" filterUnits="userSpaceOnUse" color-interpolation-filters="sRGB">
<feFlood flood-opacity="0" result="BackgroundImageFix"/>
<feBlend mode="normal" in="SourceGraphic" in2="BackgroundImageFix" result="shape"/>
<feColorMatrix in="SourceAlpha" type="matrix" values="0 0 0 0 0 0 0 0 0 0 0 0 0 0 0 0 0 0 127 0" result="hardAlpha"/>
<feOffset dy="4"/>
<feGaussianBlur stdDeviation="2"/>
<feComposite in2="hardAlpha" operator="arithmetic" k2="-1" k3="1"/>
<feColorMatrix type="matrix" values="0 0 0 0 0 0 0 0 0 0 0 0 0 0 0 0 0 0 0.25 0"/>
<feBlend mode="normal" in2="shape" result="effect1_innerShadow"/>
</filter>
</defs>
</svg>
