<svg width="1440" height="1024" viewBox="0 0 1440 1024" fill="none" xmlns="http://www.w3.org/2000/svg">
<g filter="url(#filter0_d)">
<g filter="url(#filter1_i)">
<path d="M104.019 417.42L125.189 411.62V300.55C125.189 295.523 124.803 292.237 124.029 290.69C123.256 288.95 121.226 287.403 117.939 286.05L102.859 277.35L104.309 251.54H197.399L198.559 281.12L177.679 286.92V400.02C177.679 404.66 177.969 407.657 178.549 409.01C179.323 410.363 181.159 411.717 184.059 413.07L198.849 422.06L197.979 447H105.469L104.019 417.42ZM214.711 419.16L232.691 413.94V343.76C232.691 339.507 232.401 336.8 231.821 335.64C231.241 334.287 229.694 332.837 227.181 331.29L214.421 324.33L215.291 302.58L221.671 301.42C246.998 296.393 265.268 293.687 276.481 293.3C278.028 297.36 279.284 301.807 280.251 306.64C292.044 301.227 301.614 297.553 308.961 295.62C316.501 293.493 323.558 292.43 330.131 292.43C360.871 292.43 376.241 310.797 376.241 347.53V404.37C376.241 408.43 376.531 411.137 377.111 412.49C377.691 413.843 379.334 415.293 382.041 416.84L395.961 424.96L394.801 446.71H314.761L313.311 419.16L327.521 415.1V360.29C327.521 351.59 327.231 345.5 326.651 342.02C326.071 338.54 324.428 335.833 321.721 333.9C319.208 331.967 314.664 331 308.091 331C301.131 331 292.334 332.063 281.701 334.19V404.37C281.701 408.43 281.991 411.137 282.571 412.49C283.151 413.843 284.698 415.293 287.211 416.84L301.421 424.96L300.261 446.71H216.161L214.711 419.16ZM536.656 235.3L585.956 222.25L598.136 266.33L548.836 279.67L536.656 235.3ZM405.866 420.32L426.166 414.23V329.26L405.866 328.97V300.55L426.166 299.39V280.54C426.166 263.14 431.193 249.607 441.246 239.94C451.493 230.08 465.606 225.15 483.586 225.15C495.38 225.15 508.43 226.407 522.736 228.92L516.066 268.36C507.56 266.04 500.116 264.493 493.736 263.72C487.55 262.753 481.266 262.367 474.886 262.56V296.78L593.496 294.75V404.66C593.496 408.72 593.786 411.427 594.366 412.78C594.946 414.133 596.59 415.583 599.296 417.13L613.506 425.25L612.636 447H525.636L524.186 420.32L544.776 414.23V343.76C544.776 339.507 544.293 336.703 543.326 335.35C542.553 333.803 540.33 332.063 536.656 330.13L474.886 329.84V404.66C474.886 408.72 475.176 411.427 475.756 412.78C476.336 414.133 477.98 415.583 480.686 417.13L498.666 426.99L497.796 447H406.736L405.866 420.32ZM625.355 419.16L643.335 413.94V343.76C643.335 339.507 643.045 336.8 642.465 335.64C641.885 334.287 640.339 332.837 637.825 331.29L625.065 324.33L625.935 302.58L632.315 301.42C657.642 296.393 675.912 293.687 687.125 293.3C688.672 297.36 689.929 301.807 690.895 306.64C702.689 301.227 712.259 297.553 719.605 295.62C727.145 293.493 734.202 292.43 740.775 292.43C771.515 292.43 786.885 310.797 786.885 347.53V404.37C786.885 408.43 787.175 411.137 787.755 412.49C788.335 413.843 789.979 415.293 792.685 416.84L806.605 424.96L805.445 446.71H725.405L723.955 419.16L738.165 415.1V360.29C738.165 351.59 737.875 345.5 737.295 342.02C736.715 338.54 735.072 335.833 732.365 333.9C729.852 331.967 725.309 331 718.735 331C711.775 331 702.979 332.063 692.345 334.19V404.37C692.345 408.43 692.635 411.137 693.215 412.49C693.795 413.843 695.342 415.293 697.855 416.84L712.065 424.96L710.905 446.71H626.805L625.355 419.16Z" fill="white"/>
</g>
<path fill-rule="evenodd" clip-rule="evenodd" d="M842.889 300.06C843.045 301.29 843.33 302.802 843.521 303.421L843.868 304.547L845.845 304.627C848.289 304.725 883.563 305.024 910.966 305.178C922.209 305.241 932.583 305.186 934.019 305.057C938.97 304.609 944.009 302.303 947.426 298.921C950.022 296.353 952.317 291.369 952.608 287.668C952.895 284.025 951.824 279.012 950.013 275.52C948.4 272.411 944.11 267.494 941.12 265.328C938.493 263.424 933.491 260.92 930.681 260.101C927.258 259.103 920.737 258.643 917.494 259.17C913.501 259.818 909.01 261.861 906.239 264.289C904.295 265.992 903.71 266.793 902.132 269.915C900.518 273.109 900.27 273.916 900.111 276.498C899.937 279.314 900.51 283.703 901.748 289.031C902.4 291.84 902.073 291.679 907.042 291.644C908.535 291.633 909.855 291.433 909.975 291.199C910.095 290.964 909.827 288.727 909.381 286.228C908.164 279.42 908.17 277.778 909.43 274.699C911.792 268.93 917.781 265.714 924.926 266.378C935.119 267.325 943.389 274.852 944.146 283.87C944.712 290.606 940.053 296.149 932.773 297.403C931.06 297.698 923.297 297.866 914.15 297.807C905.523 297.751 886.419 297.62 871.698 297.516C856.977 297.412 844.408 297.439 843.768 297.576L842.605 297.826L842.889 300.06ZM817.625 368.11C813.246 383.79 817.678 400.452 829.956 414.473C839.882 425.81 853.805 433.908 868.795 437.067C877.624 438.927 888.476 438.824 896.439 436.803C906.05 434.364 913.747 429.74 920.144 422.561C922.938 419.427 927.386 410.605 928.236 406.514C929.176 401.99 929.438 398.07 929.087 393.771C928.652 388.437 926.958 380.189 926.186 379.638C925.321 379.021 919.136 378.959 918.831 379.564C918.696 379.833 919.006 382.335 919.521 385.124C921.666 396.764 921.136 403.241 917.427 410.697C915.34 414.892 913.143 417.797 909.798 420.787C896.202 432.939 874.156 434.451 854.509 424.58C842.404 418.498 833.157 409.194 828.144 398.053C824.925 390.899 823.694 382.959 824.715 375.946C825.392 371.303 828.554 364.114 831.57 360.365C835.273 355.761 840.767 351.768 846.749 349.333C850.375 347.857 856.844 346.418 860.836 346.199C862.474 346.109 876.069 346.123 891.047 346.231C956.004 346.697 950.876 346.71 951.197 346.087C951.455 345.585 950.778 341.123 950.269 339.975C949.905 339.155 951.292 339.202 922.468 339.03C911.098 338.962 892.519 338.848 881.18 338.776C869.841 338.705 859.211 338.76 857.557 338.898C844.868 339.959 833.163 345.495 825.655 353.988C823.025 356.963 818.531 364.867 817.625 368.11ZM845.518 314.43C845.76 315.626 846.199 316.559 846.616 316.768C846.998 316.96 852.06 317.15 857.865 317.19C863.67 317.23 883.273 317.365 901.426 317.489C919.579 317.614 936.198 317.526 938.356 317.295C945.774 316.5 952.845 313.319 958.213 308.362C960.422 306.322 960.828 305.722 963.306 300.841C966.514 294.518 967.069 291.893 966.543 285.523C965.698 275.286 959.898 265.182 950.535 257.633C947.684 255.334 946.497 254.606 941.431 252.047C936.234 249.421 935.164 248.992 931.518 248.075C907.103 241.929 886.548 254.447 885.974 275.811C885.911 278.15 887.6 289.269 888.26 290.862C888.494 291.427 888.843 291.535 890.555 291.568C894.715 291.649 894.475 292.222 893.222 285.212C891.508 275.623 892.031 270.912 895.463 265.002C899.056 258.815 904.177 255.056 911.655 253.118C920.572 250.806 929.734 251.915 938.773 256.4C947.523 260.743 953.632 266.652 957.386 274.402C966.026 292.24 955.619 310.182 935.576 312.002C934.219 312.125 915.248 312.109 893.419 311.965C844.955 311.647 847.849 311.66 846.539 311.744C845.127 311.834 845.038 312.068 845.518 314.43ZM871.954 260.078C870.005 265.45 869.189 273.415 870.008 279.071C870.493 282.423 872.287 291.247 872.505 291.357C872.905 291.558 879.144 291.56 879.778 291.359C880.319 291.188 880.25 290.076 879.419 285.535C878.854 282.448 878.303 278.45 878.194 276.651C877.451 264.357 883.181 253.139 893.713 246.271C897.59 243.743 902.106 241.937 907.451 240.778C915.647 239 923.97 239.25 932.905 241.542C936.666 242.507 937.579 242.885 944.33 246.277C951.081 249.669 951.929 250.176 954.949 252.618C969.929 264.732 977.005 281.379 973.808 296.988C973.354 299.207 972.606 301.098 970.734 304.763C968.492 309.151 967.983 309.886 965.313 312.586C958.739 319.234 949.384 323.472 939.409 324.32C937.442 324.487 923.579 324.533 908.602 324.422C893.625 324.311 874.188 324.167 865.408 324.103C856.629 324.038 849.001 324.071 848.459 324.175C847.494 324.36 847.48 324.416 847.807 326.751C847.991 328.063 848.332 329.61 848.565 330.189C849.089 331.489 848.493 331.427 861.21 331.521C906.044 331.853 937.473 331.947 940.62 331.757C948.546 331.279 958.3 328.177 964.531 324.154C985.286 310.752 988.997 283.932 973.2 261.505C967.039 252.759 959.517 246.206 949.272 240.661C940.262 235.784 932.36 233.386 922.286 232.47C902.442 230.666 885.235 237.932 875.98 252.024C873.597 255.652 873.463 255.92 871.954 260.078ZM833.257 374.532C829.519 387.791 835.756 403.05 849.25 413.656C853.365 416.891 861.988 421.217 866.744 422.434C882.098 426.362 895.98 423.353 905.366 414.062C906.941 412.502 907.787 411.21 909.707 407.427C912.325 402.268 912.837 400.297 912.943 394.974C913.002 392.052 911.431 381.79 910.657 380.043C910.298 379.231 910.191 379.184 908.465 379.072C907.467 379.008 906.198 379.045 905.646 379.155C904.661 379.351 904.662 379.463 905.724 385.36C906.319 388.662 906.783 392.655 906.756 394.232C906.517 408.093 894.889 418.373 879.104 418.679C872.321 418.811 866.322 417.363 859.603 413.974C845.179 406.698 836.738 392.779 838.697 379.501C839.287 375.507 842.106 369.912 845.013 366.97C850.413 361.501 857.62 358.66 866.505 358.499C868.598 358.461 885.945 358.542 905.056 358.679C951.175 359.011 952.935 359 953.403 358.389C953.82 357.843 953.201 353.963 952.652 353.688C952.474 353.598 946.006 353.483 938.28 353.432C930.553 353.382 911.34 353.253 895.584 353.146C879.828 353.039 865.643 352.993 864.062 353.043C854.778 353.34 845.808 357.079 839.853 363.135C837.623 365.402 834.128 371.442 833.257 374.532ZM846.51 381.762C846.109 384.995 846.137 385.764 846.768 388.904C847.514 392.616 850.045 397.569 852.756 400.621C855.603 403.828 858.573 406.069 862.754 408.17C869.795 411.708 875.732 412.555 882.777 411.028C889.791 409.507 893.984 406.466 896.825 400.84C899.279 395.981 899.456 392.732 897.739 384.012C897.145 380.993 896.671 379.576 896.173 379.325C895.376 378.925 890.454 378.789 889.353 379.137C888.762 379.324 888.794 380.185 889.546 384.393C890.81 391.459 890.748 393.517 889.174 396.731C885.841 403.541 877.44 406.125 868.457 403.105C861.209 400.668 855.175 393.533 854.779 386.934C854.464 381.661 856.488 377.845 861.104 375.013C865.121 372.548 861.094 372.668 924.903 373.107C939.238 373.205 952.11 373.258 953.506 373.223C956.429 373.151 956.588 372.9 955.93 369.399C955.299 366.038 955.051 365.981 940.379 365.84C915.67 365.602 869.603 365.355 867.02 365.447C861.705 365.636 856.41 367.538 852.799 370.555C849.962 372.926 846.938 378.314 846.51 381.762Z" fill="white"/>
</g>
<defs>
<filter id="filter0_d" x="-4" y="0" width="1448" height="1032" filterUnits="userSpaceOnUse" color-interpolation-filters="sRGB">
<feFlood flood-opacity="0" result="BackgroundImageFix"/>
<feColorMatrix in="SourceAlpha" type="matrix" values="0 0 0 0 0 0 0 0 0 0 0 0 0 0 0 0 0 0 127 0" result="hardAlpha"/>
<feOffset dy="4"/>
<feGaussianBlur stdDeviation="2"/>
<feComposite in2="hardAlpha" operator="out"/>
<feColorMatrix type="matrix" values="0 0 0 0 0 0 0 0 0 0 0 0 0 0 0 0 0 0 0.25 0"/>
<feBlend mode="normal" in2="BackgroundImageFix" result="effect1_dropShadow"/>
<feBlend mode="normal" in="SourceGraphic" in2="effect1_dropShadow" result="shape"/>
</filter>
<filter id="filter1_i" x="102.859" y="222.25" width="703.746" height="228.75" filterUnits="userSpaceOnUse" color-interpolation-filters="sRGB">
<feFlood flood-opacity="0" result="BackgroundImageFix"/>
<feBlend mode="normal" in="SourceGraphic" in2="BackgroundImageFix" result="shape"/>
<feColorMatrix in="SourceAlpha" type="matrix" values="0 0 0 0 0 0 0 0 0 0 0 0 0 0 0 0 0 0 127 0" result="hardAlpha"/>
<feOffset dy="4"/>
<feGaussianBlur stdDeviation="2"/>
<feComposite in2="hardAlpha" operator="arithmetic" k2="-1" k3="1"/>
<feColorMatrix type="matrix" values="0 0 0 0 0 0 0 0 0 0 0 0 0 0 0 0 0 0 0.25 0"/>
<feBlend mode="normal" in2="shape" result="effect1_innerShadow"/>
</filter>
</defs>
</svg>
