<svg width="159" height="144" viewBox="0 0 159 144" fill="none" xmlns="http://www.w3.org/2000/svg">
<path d="M13.707 24.8276V51.1447C13.707 91.0851 39.41 127.361 79.5 144C119.59 127.361 145.293 91.0851 145.293 51.1447V24.8276C124.039 24.8226 103.457 18.0771 87.1212 5.76L79.5 0L71.8789 5.76C55.5432 18.0771 34.9608 24.8226 13.707 24.8276Z" fill="#34204A"/>
<path d="M111.657 18.9684C102.034 72.3477 74.3462 104.921 48.0016 124.411C57.1907 132.52 67.8437 139.144 79.5 144C119.59 127.361 145.293 91.0851 145.293 51.1448V24.8277C133.771 24.8201 122.359 22.8314 111.657 18.9684Z" fill="#9E6365"/>
<path d="M90.4654 69.5171V54.6204C90.4654 49.1361 85.5557 44.6895 79.5 44.6895C73.4444 44.6895 68.5346 49.1361 68.5346 54.6204V69.5171H57.5692V54.6204C57.5692 43.6517 67.3887 34.7583 79.5003 34.7583C91.6117 34.7583 101.431 43.6514 101.431 54.6204V69.5171H90.4654Z" fill="white"/>
<path d="M57.5689 69.5174H68.5343V57.7988C64.9677 59.4028 61.3079 60.8301 57.5689 62.069V69.5174Z" fill="white"/>
<path d="M94.5501 40.196C92.1213 42.6938 89.4922 45.0274 86.6823 47.1727C89.0701 49.0473 90.449 51.7608 90.4654 54.6211V69.5178H101.431V54.6211C101.426 49.1612 98.9365 43.9423 94.5501 40.196Z" fill="white"/>
<path d="M109.655 64.5518H49.345V109.242H109.655V64.5518Z" fill="#FDB62F"/>
<path d="M109.655 64.5518H49.345V109.242H109.655V64.5518Z" fill="#FFC300"/>
<path d="M109.655 109.242H49.345C66.4511 99.3104 92.5489 99.3104 109.655 109.242Z" fill="#FFD28F"/>
<path d="M82.2412 86.8965H76.7585V99.3103H82.2412V86.8965Z" fill="white"/>
<path d="M79.5 89.3792C82.5281 89.3792 84.9828 87.1561 84.9828 84.4137C84.9828 81.6714 82.5281 79.4482 79.5 79.4482C76.472 79.4482 74.0173 81.6714 74.0173 84.4137C74.0173 87.1561 76.472 89.3792 79.5 89.3792Z" fill="white"/>
<path d="M49.345 64.5518H109.655C92.5489 74.483 66.4512 74.483 49.345 64.5518Z" fill="#FFD28F"/>
<path d="M35.6381 57.1034C35.6381 50.2485 41.7761 44.6896 49.345 44.6896C41.7761 44.6896 35.6381 39.1307 35.6381 32.2758" fill="white"/>
<path d="M35.6381 32.2777C35.6381 39.1326 29.5001 44.6915 21.9312 44.6915C29.5001 44.6915 35.6381 50.2504 35.6381 57.1053" fill="white"/>
</svg>
