<svg width="147" height="134" viewBox="0 0 147 134" fill="none" xmlns="http://www.w3.org/2000/svg">
<path d="M63.6786 114.167C55.8627 113.143 48.4157 110.379 41.9492 106.102C35.4827 101.825 30.1812 96.1576 26.48 89.5649C22.7787 82.9722 20.7834 75.6424 20.6578 68.1772C20.5321 60.712 22.2798 53.3245 25.7573 46.6214L30.0036 49.6425L30.0362 28.9382L9.02035 34.7125L14.7338 38.777C11.0863 45.1344 8.68552 52.0637 7.6476 59.2297C2.84577 92.0793 27.098 122.382 61.815 126.913C70.7338 128.086 79.8153 127.446 88.453 125.034C97.0907 122.622 105.086 118.495 111.905 112.927L101.741 104.197C96.4521 108.23 90.346 111.196 83.7996 112.91C77.2533 114.625 70.4055 115.053 63.6786 114.167Z" fill="#FDB62F"/>
<path d="M106.005 100.809L101.239 96.3274L101.154 69.4095C101.133 63.0727 98.9197 56.9173 94.8514 51.8849C90.7831 46.8525 85.0841 43.2199 78.6261 41.5429L85.7112 30.1161L55.0732 30.2124L62.2299 41.5944C55.7826 43.3121 50.1066 46.9804 46.07 52.0383C42.0335 57.0962 39.8586 63.2654 39.8779 69.6022L39.9626 96.5201L35.2243 101.032C34.6512 101.577 34.1973 102.224 33.8885 102.936C33.5797 103.647 33.422 104.409 33.4244 105.179C33.4294 106.732 34.0862 108.219 35.2505 109.314C36.4147 110.409 37.991 111.021 39.6326 111.016L101.66 110.821C103.301 110.815 104.874 110.193 106.031 109.091C107.188 107.989 107.836 106.498 107.831 104.945C107.829 104.175 107.666 103.414 107.353 102.705C107.04 101.995 106.582 101.351 106.005 100.809Z" fill="#34204A"/>
<path d="M58.6541 54.6424L56.0121 51.3416C57.2469 50.4568 58.5688 49.6863 59.9594 49.0409L61.886 52.7594C60.7474 53.2875 59.6651 53.9181 58.6541 54.6424Z" fill="white"/>
<path d="M50.8265 71.6382L46.4497 71.652L46.4432 69.5814C46.4231 63.9373 48.6244 58.4876 52.6182 54.2939L55.8721 57.0619C52.6049 60.4925 50.8039 64.9505 50.82 69.5676L50.8265 71.6382Z" fill="white"/>
<path d="M69.8773 98.4963L53.0995 98.549C51.3583 98.5545 49.6904 99.2142 48.4629 100.383C47.2353 101.552 46.5486 103.134 46.5538 104.782C46.5589 106.429 47.2556 108.007 48.4905 109.168C49.7254 110.329 51.3974 110.978 53.1386 110.973L48.7617 110.986L23.8435 100.28C22.7405 99.8062 21.5282 99.6052 20.3204 99.6959C19.1126 99.7867 17.9488 100.166 16.9384 100.799C15.9498 101.418 15.1393 102.26 14.5797 103.249C14.0201 104.237 13.7289 105.342 13.7323 106.464L13.7337 106.914C13.7376 108.17 14.1114 109.401 14.8131 110.468C15.5147 111.535 16.5166 112.395 17.7064 112.954L43.2606 124.945C46.9125 126.659 50.9363 127.544 55.0134 127.532L101.336 127.386L101.245 98.3976C96.5545 95.8808 91.2609 94.5418 85.868 94.5083C80.4751 94.4747 75.1624 95.7477 70.4356 98.2059L69.8773 98.4963Z" fill="#FDC8A2"/>
<path d="M101.245 98.3978L127.506 98.3152L127.597 127.304L101.336 127.386L101.245 98.3978Z" fill="#9E6365"/>
<path d="M112.259 121.14C114.676 121.132 116.63 119.272 116.623 116.985C116.615 114.698 114.65 112.85 112.233 112.858C109.815 112.865 107.862 114.725 107.869 117.013C107.876 119.3 109.841 121.148 112.259 121.14Z" fill="white"/>
<path d="M112.259 121.14C114.676 121.132 116.63 119.272 116.623 116.985C116.615 114.698 114.65 112.85 112.233 112.858C109.815 112.865 107.862 114.725 107.869 117.013C107.876 119.3 109.841 121.148 112.259 121.14Z" stroke="black"/>
<path d="M72.7042 69.4987L72.6781 61.2162C73.8385 61.2139 74.9524 61.6471 75.7754 62.4209C76.5983 63.1947 77.0632 64.2458 77.068 65.3437L81.4449 65.3299C81.4354 63.1341 80.5056 61.0317 78.8597 59.4842C77.2137 57.9366 74.986 57.0702 72.6651 57.075L72.6521 52.9338L68.2753 52.9476L68.2883 57.0888C65.9666 57.0961 63.7429 57.9757 62.1061 59.5341C60.4693 61.0925 59.5537 63.2021 59.5606 65.3988C59.5675 67.5954 60.4964 69.6992 62.1429 71.2473C63.7895 72.7954 66.0187 73.661 68.3404 73.6537L68.3664 81.9361C67.206 81.9385 66.0922 81.5052 65.2692 80.7315C64.4463 79.9577 63.9814 78.9066 63.9765 77.8087L59.5997 77.8224C59.6092 80.0183 60.5389 82.1206 62.1849 83.6682C63.8308 85.2158 66.0586 86.0822 68.3794 86.0773L68.3925 90.2186L72.7693 90.2048L72.7563 86.0636C75.0779 86.0563 77.3017 85.1767 78.9385 83.6182C80.5752 82.0598 81.4909 79.9502 81.4839 77.7536C81.477 75.557 80.5481 73.4532 78.9016 71.9051C77.2551 70.357 75.0258 69.4914 72.7042 69.4987ZM63.9375 65.385C63.9354 64.2871 64.3937 63.233 65.2117 62.4541C66.0298 61.6752 67.1409 61.235 68.3013 61.23L68.3273 69.5125C67.1669 69.5148 66.0531 69.0816 65.2301 68.3078C64.4072 67.534 63.9423 66.4829 63.9375 65.385ZM72.7433 81.9223L72.7172 73.6399C73.878 73.6363 74.9927 74.0691 75.8159 74.8431C76.6392 75.6172 77.1036 76.669 77.1071 77.7674C77.1105 78.8657 76.6527 79.9205 75.8344 80.6997C75.016 81.4789 73.9041 81.9187 72.7433 81.9223Z" fill="white"/>
<path d="M79.1992 7.95491C63.387 5.86992 47.3244 9.52191 34.2363 18.1777L41.5757 29.0223C50.62 22.932 61.552 19.8694 72.6408 20.3193C83.7296 20.7691 94.3418 24.7059 102.797 31.5062C111.253 38.3065 117.068 47.5818 119.323 57.8637C121.578 68.1456 120.143 78.8466 115.247 88.2726L110.95 85.2159L110.918 105.92L131.934 100.146L126.267 96.1133C129.922 89.7495 132.328 82.8117 133.368 75.6365C138.168 42.7869 113.916 12.4842 79.1992 7.95491Z" fill="#FDB62F"/>
<path d="M53.1321 108.902L70.6396 108.847L70.6526 112.989L53.1452 113.044L53.1321 108.902Z" fill="#FDB683"/>
</svg>
