<svg width="18" height="10" viewBox="0 0 18 10" fill="none" xmlns="http://www.w3.org/2000/svg">
<path d="M12.5529 1.7949L12.5475 1.08971L12.5421 0.384521H15.271H17.9999L17.9947 2.669L17.9895 4.95348H17.1381H16.2867L16.2815 3.88514C16.2785 3.29756 16.2693 2.8168 16.2609 2.8168C16.2526 2.8168 14.3878 4.34646 12.1169 6.21603L7.98812 9.61529L6.16729 8.11625L4.34646 6.61721L2.9105 7.79955L1.47456 8.98187L0.644017 8.36828C0.215524 8.03562 0.215524 8.29953 0.215524 8.03562L1.4746 6.97181L2.91054 5.78951L4.34646 4.6072L6.16729 6.10624L7.98812 7.60529L11.5066 4.70853L15.0251 1.81179L13.7889 1.80335L12.5529 1.7949Z" fill="white"/>
</svg>
