<svg width="141" height="128" viewBox="0 0 141 128" fill="none" xmlns="http://www.w3.org/2000/svg">
<g clip-path="url(#clip0)">
<path d="M7.29307 13.2415H133.707C137.735 13.2415 141 16.2052 141 19.8622V108.138C141 111.795 137.735 114.759 133.707 114.759H7.29307C3.26465 114.758 -0.000102997 111.795 -0.000102997 108.138V19.862C-0.000102997 16.2052 3.26465 13.2415 7.29307 13.2415Z" fill="#34204A"/>
<path d="M133.707 13.2413H117.565C102.978 66.5821 61.651 97.7656 28.516 114.759H133.707C137.735 114.759 141 111.795 141 108.138V19.8618C141 16.2051 137.735 13.2413 133.707 13.2413Z" fill="#9E6365"/>
<path d="M128.845 114.758C128.568 85.6121 102.607 62.0446 70.4999 61.7928C38.3933 62.0443 12.4322 85.6118 12.1551 114.758H128.845Z" fill="#FFC300"/>
<path d="M103.975 71.5474C90.799 94.1901 65.8081 107.343 44.5121 114.758H128.845C128.57 97.5911 119.342 81.5579 103.975 71.5474Z" fill="#FFC300"/>
<path d="M133.707 13.2415H7.29307C3.26465 13.2415 -0.000102997 16.2052 -0.000102997 19.862V30.8965H141V19.862C141 16.2052 137.735 13.2415 133.707 13.2415Z" fill="#E5E5E5"/>
<path d="M14.586 19.8621H9.724V24.2758H14.586V19.8621Z" fill="#34204A"/>
<path d="M24.3103 19.8619H19.4483V24.2757H24.3103V19.8619Z" fill="#34204A"/>
<path d="M34.0344 19.8619H29.1724V24.2757H34.0344V19.8619Z" fill="#34204A"/>
<path d="M29.1724 59.5862C29.1724 53.493 34.6155 48.5517 41.3276 48.5517C34.6155 48.5517 29.1724 43.6105 29.1724 37.5172" fill="white"/>
<path d="M29.1724 37.5172C29.1724 43.6105 23.7293 48.5517 17.0172 48.5517C23.7293 48.5517 29.1724 53.493 29.1724 59.5862" fill="white"/>
<path d="M70.5 59.5862C37.6081 59.5862 10.3563 84.3254 9.724 114.759H12.1551H14.5863H126.414H131.276C130.692 84.3254 103.441 59.5862 70.5 59.5862ZM116.204 86.0689H99.6724C97.431 79.1724 93.8426 72.6974 89.0731 66.9572C100.081 70.6184 109.562 77.2987 116.204 86.0689ZM72.9311 63.9999C75.1483 64.0817 77.3555 64.2889 79.5435 64.6179C85.7671 68.6344 91.018 76.3144 94.5917 86.0027H72.9311V63.9999ZM61.4322 64.6399C63.6273 64.3044 65.8445 64.0904 68.0688 63.9999V86.0689H46.4082C49.982 76.4027 55.2086 68.7227 61.4319 64.7062V64.6399H61.4322ZM51.9755 66.8469C47.1744 72.6157 43.5665 79.1304 41.3276 86.0689H24.7964C31.4526 77.2987 40.953 70.6272 51.9753 66.9792L51.9755 66.8469ZM21.8792 90.4827H40.039C38.2156 96.9887 37.1072 103.64 36.7327 110.345H14.9509C15.7702 103.369 18.1281 96.6157 21.8792 90.4827ZM41.595 110.345C41.9645 103.633 43.1047 96.9774 44.9985 90.4827H68.0691V110.345H41.595ZM72.9311 110.345V90.4827H96.0747C97.9685 96.9777 99.1087 103.634 99.4782 110.345H72.9311ZM104.34 110.345C103.966 103.64 102.857 96.9884 101.034 90.4827H119.242C122.991 96.6112 125.322 103.371 126.098 110.345H104.34Z" fill="white"/>
<path d="M87.5171 75.0343L103.027 89.1143C105.04 90.9393 105.042 93.9033 103.032 95.7306C103.03 95.7328 103.03 95.7328 103.027 95.7351C101.017 97.5623 97.7517 97.5646 95.7389 95.7396C95.7364 95.7373 95.7364 95.7373 95.7339 95.7351L80.2239 81.6551L87.5171 75.0343Z" fill="#9E6365"/>
<path d="M86.3023 87.166L93.5908 80.5494L87.5057 75.0254L80.2172 81.6419L86.3023 87.166Z" fill="#9E6365"/>
<path d="M70.2083 88.0109C83.6346 88.0109 94.5187 78.1303 94.5187 65.9419C94.5187 53.7536 83.6346 43.8729 70.2083 43.8729C56.7821 43.8729 45.8979 53.7536 45.8979 65.9419C45.8979 78.1303 56.7821 88.0109 70.2083 88.0109Z" fill="#9E6365"/>
<path d="M70.2082 79.1834C78.264 79.1834 84.7946 73.255 84.7946 65.9419C84.7946 58.6289 78.264 52.7004 70.2082 52.7004C62.1524 52.7004 55.6219 58.6289 55.6219 65.9419C55.6219 73.255 62.1524 79.1834 70.2082 79.1834Z" fill="#FFC300"/>
<path d="M63.5713 77.7272C70.7477 81.0487 79.5311 78.4599 83.1921 71.9452C85.0226 68.6857 85.2875 64.8832 83.9188 61.4404L63.5713 77.7272Z" fill="#FFC300"/>
<path d="M133.707 13.2413H117.565C115.914 19.2331 113.867 25.1276 111.438 30.8966H141V19.8618C141 16.2051 137.735 13.2413 133.707 13.2413Z" fill="#D6D6D6"/>
</g>
<defs>
<clipPath id="clip0">
<rect width="141" height="128" fill="white"/>
</clipPath>
</defs>
</svg>
